<svg width="139" height="132" viewBox="0 0 139 132" fill="none" xmlns="http://www.w3.org/2000/svg">
<line x1="0.879399" y1="72.781" x2="69.8794" y2="34.781" stroke="white" stroke-opacity="0.52" stroke-width="0.5"/>
<line y1="-0.25" x2="58.572" y2="-0.25" transform="matrix(0.921942 -0.387328 0.585334 0.810792 78 33.6865)" stroke="white" stroke-opacity="0.52" stroke-width="0.5"/>
<line y1="-0.25" x2="58.572" y2="-0.25" transform="matrix(0.921942 -0.387328 0.585334 0.810792 78 103.687)" stroke="white" stroke-opacity="0.52" stroke-width="0.5"/>
<line x1="69.9003" y1="102.229" x2="0.90038" y2="72.2292" stroke="white" stroke-opacity="0.52" stroke-width="0.5"/>
<line y1="-0.25" x2="56.8927" y2="-0.25" transform="matrix(-0.949154 -0.314812 0.495167 -0.868798 132 51)" stroke="white" stroke-opacity="0.52" stroke-width="0.5"/>
<line y1="-0.25" x2="56.8927" y2="-0.25" transform="matrix(-0.949154 -0.314812 0.495167 -0.868798 132 121)" stroke="white" stroke-opacity="0.52" stroke-width="0.5"/>
<circle cx="74" cy="34" r="2.75" stroke="white" stroke-opacity="0.49" stroke-width="0.5"/>
<circle cx="136" cy="51" r="2.75" stroke="white" stroke-opacity="0.49" stroke-width="0.5"/>
<circle cx="136" cy="81" r="2.75" stroke="white" stroke-opacity="0.49" stroke-width="0.5"/>
<circle cx="136" cy="121" r="2.75" stroke="white" stroke-opacity="0.49" stroke-width="0.5"/>
<circle cx="136" cy="11" r="2.75" stroke="white" stroke-opacity="0.49" stroke-width="0.5"/>
<circle cx="74" cy="103" r="2.75" stroke="white" stroke-opacity="0.49" stroke-width="0.5"/>
<rect x="25" y="37" width="7" height="7" rx="1" fill="white" fill-opacity="0.2"/>
<rect x="25" y="37" width="7" height="7" rx="1" fill="url(#paint0_linear_56_95)" fill-opacity="0.5"/>
<rect x="25.05" y="37.05" width="6.9" height="6.9" rx="0.95" stroke="white" stroke-opacity="0.48" stroke-width="0.1"/>
<rect x="25" y="46" width="7" height="7" rx="1" fill="white" fill-opacity="0.2"/>
<rect x="25" y="46" width="7" height="7" rx="1" fill="url(#paint1_linear_56_95)" fill-opacity="0.5"/>
<rect x="25.05" y="46.05" width="6.9" height="6.9" rx="0.95" stroke="white" stroke-opacity="0.48" stroke-width="0.1"/>
<line x1="23.125" y1="44.875" x2="33.875" y2="44.875" stroke="white" stroke-opacity="0.44" stroke-width="0.25" stroke-linecap="round"/>
<rect x="27" y="88" width="7" height="7" rx="1" fill="white" fill-opacity="0.2"/>
<rect x="27" y="88" width="7" height="7" rx="1" fill="url(#paint2_linear_56_95)" fill-opacity="0.5"/>
<rect x="27.05" y="88.05" width="6.9" height="6.9" rx="0.95" stroke="white" stroke-opacity="0.48" stroke-width="0.1"/>
<rect x="27" y="97" width="7" height="7" rx="1" fill="white" fill-opacity="0.2"/>
<rect x="27" y="97" width="7" height="7" rx="1" fill="url(#paint3_linear_56_95)" fill-opacity="0.5"/>
<rect x="27.05" y="97.05" width="6.9" height="6.9" rx="0.95" stroke="white" stroke-opacity="0.48" stroke-width="0.1"/>
<line x1="25.125" y1="95.875" x2="35.875" y2="95.875" stroke="white" stroke-opacity="0.44" stroke-width="0.25" stroke-linecap="round"/>
<rect x="101" y="116" width="7" height="7" rx="1" fill="white" fill-opacity="0.2"/>
<rect x="101" y="116" width="7" height="7" rx="1" fill="url(#paint4_linear_56_95)" fill-opacity="0.5"/>
<rect x="101.05" y="116.05" width="6.9" height="6.9" rx="0.95" stroke="white" stroke-opacity="0.48" stroke-width="0.1"/>
<rect x="101" y="125" width="7" height="7" rx="1" fill="white" fill-opacity="0.2"/>
<rect x="101" y="125" width="7" height="7" rx="1" fill="url(#paint5_linear_56_95)" fill-opacity="0.5"/>
<rect x="101.05" y="125.05" width="6.9" height="6.9" rx="0.95" stroke="white" stroke-opacity="0.48" stroke-width="0.1"/>
<line x1="99.125" y1="123.875" x2="109.875" y2="123.875" stroke="white" stroke-opacity="0.44" stroke-width="0.25" stroke-linecap="round"/>
<rect x="102" y="68" width="7" height="7" rx="1" fill="white" fill-opacity="0.2"/>
<rect x="102" y="68" width="7" height="7" rx="1" fill="url(#paint6_linear_56_95)" fill-opacity="0.5"/>
<rect x="102.05" y="68.05" width="6.9" height="6.9" rx="0.95" stroke="white" stroke-opacity="0.48" stroke-width="0.1"/>
<rect x="102" y="77" width="7" height="7" rx="1" fill="white" fill-opacity="0.2"/>
<rect x="102" y="77" width="7" height="7" rx="1" fill="url(#paint7_linear_56_95)" fill-opacity="0.5"/>
<rect x="102.05" y="77.05" width="6.9" height="6.9" rx="0.95" stroke="white" stroke-opacity="0.48" stroke-width="0.1"/>
<line x1="100.125" y1="75.875" x2="110.875" y2="75.875" stroke="white" stroke-opacity="0.44" stroke-width="0.25" stroke-linecap="round"/>
<rect x="101" y="45" width="7" height="7" rx="1" fill="white" fill-opacity="0.2"/>
<rect x="101" y="45" width="7" height="7" rx="1" fill="url(#paint8_linear_56_95)" fill-opacity="0.5"/>
<rect x="101.05" y="45.05" width="6.9" height="6.9" rx="0.95" stroke="white" stroke-opacity="0.48" stroke-width="0.1"/>
<rect x="101" y="54" width="7" height="7" rx="1" fill="white" fill-opacity="0.2"/>
<rect x="101" y="54" width="7" height="7" rx="1" fill="url(#paint9_linear_56_95)" fill-opacity="0.5"/>
<rect x="101.05" y="54.05" width="6.9" height="6.9" rx="0.95" stroke="white" stroke-opacity="0.48" stroke-width="0.1"/>
<line x1="99.125" y1="52.875" x2="109.875" y2="52.875" stroke="white" stroke-opacity="0.44" stroke-width="0.25" stroke-linecap="round"/>
<rect x="101" width="7" height="7" rx="1" fill="white" fill-opacity="0.2"/>
<rect x="101" width="7" height="7" rx="1" fill="url(#paint10_linear_56_95)" fill-opacity="0.5"/>
<rect x="101.05" y="0.05" width="6.9" height="6.9" rx="0.95" stroke="white" stroke-opacity="0.48" stroke-width="0.1"/>
<rect x="101" y="9" width="7" height="7" rx="1" fill="white" fill-opacity="0.2"/>
<rect x="101" y="9" width="7" height="7" rx="1" fill="url(#paint11_linear_56_95)" fill-opacity="0.5"/>
<rect x="101.05" y="9.05" width="6.9" height="6.9" rx="0.95" stroke="white" stroke-opacity="0.48" stroke-width="0.1"/>
<line x1="99.125" y1="7.875" x2="109.875" y2="7.875" stroke="white" stroke-opacity="0.44" stroke-width="0.25" stroke-linecap="round"/>
<defs>
<linearGradient id="paint0_linear_56_95" x1="31.5" y1="37" x2="25" y2="44" gradientUnits="userSpaceOnUse">
<stop stop-color="#FF0000"/>
<stop offset="1" stop-opacity="0"/>
</linearGradient>
<linearGradient id="paint1_linear_56_95" x1="25" y1="46.1875" x2="32" y2="53" gradientUnits="userSpaceOnUse">
<stop stop-color="#3400B5"/>
<stop offset="1" stop-opacity="0.94"/>
</linearGradient>
<linearGradient id="paint2_linear_56_95" x1="33.5" y1="88" x2="27" y2="95" gradientUnits="userSpaceOnUse">
<stop stop-color="#FF0000"/>
<stop offset="1" stop-opacity="0"/>
</linearGradient>
<linearGradient id="paint3_linear_56_95" x1="27" y1="97.1875" x2="34" y2="104" gradientUnits="userSpaceOnUse">
<stop stop-color="#3400B5"/>
<stop offset="1" stop-opacity="0.94"/>
</linearGradient>
<linearGradient id="paint4_linear_56_95" x1="107.5" y1="116" x2="101" y2="123" gradientUnits="userSpaceOnUse">
<stop stop-color="#FF0000"/>
<stop offset="1" stop-opacity="0"/>
</linearGradient>
<linearGradient id="paint5_linear_56_95" x1="101" y1="125.188" x2="108" y2="132" gradientUnits="userSpaceOnUse">
<stop stop-color="#3400B5"/>
<stop offset="1" stop-opacity="0.94"/>
</linearGradient>
<linearGradient id="paint6_linear_56_95" x1="108.5" y1="68" x2="102" y2="75" gradientUnits="userSpaceOnUse">
<stop stop-color="#FF0000"/>
<stop offset="1" stop-opacity="0"/>
</linearGradient>
<linearGradient id="paint7_linear_56_95" x1="102" y1="77.1875" x2="109" y2="84" gradientUnits="userSpaceOnUse">
<stop stop-color="#3400B5"/>
<stop offset="1" stop-opacity="0.94"/>
</linearGradient>
<linearGradient id="paint8_linear_56_95" x1="107.5" y1="45" x2="101" y2="52" gradientUnits="userSpaceOnUse">
<stop stop-color="#FF0000"/>
<stop offset="1" stop-opacity="0"/>
</linearGradient>
<linearGradient id="paint9_linear_56_95" x1="101" y1="54.1875" x2="108" y2="61" gradientUnits="userSpaceOnUse">
<stop stop-color="#3400B5"/>
<stop offset="1" stop-opacity="0.94"/>
</linearGradient>
<linearGradient id="paint10_linear_56_95" x1="107.5" y1="-3.64014e-07" x2="101" y2="7" gradientUnits="userSpaceOnUse">
<stop stop-color="#FF0000"/>
<stop offset="1" stop-opacity="0"/>
</linearGradient>
<linearGradient id="paint11_linear_56_95" x1="101" y1="9.1875" x2="108" y2="16" gradientUnits="userSpaceOnUse">
<stop stop-color="#3400B5"/>
<stop offset="1" stop-opacity="0.94"/>
</linearGradient>
</defs>
</svg>
